# xmcd CD database file
# Copyright (C) 1995-1998 Ti Kan
#
# Track frame offsets:
#	150
#	31438
#	67223
#	98435
#	117215
#	140236
#	166439
#	181497
#
# Disc length: 3468 seconds
#
# Revision: 1
# Processed by: cddbd v1.4PL0 Copyright (c) Steve Scherf et al.
# Submitted via: CDex 1.30Release
#
DISCID=720d8a08
DTITLE=THEM - The Belfast Blues Band - live in europe 96
DYEAR=1997
DGENRE=Blues
TTITLE0=going down
TTITLE1=crazy woman
TTITLE2=stormy monday
TTITLE3=on the road again
TTITLE4=it's all over now, baby blue
TTITLE5=thrill is gone
TTITLE6=baby please don't go
TTITLE7=gloria
EXTD=YEAR: 1997 ID3G:   0
EXTT0=
EXTT1=
EXTT2=
EXTT3=
EXTT4=
EXTT5=
EXTT6=
EXTT7=
PLAYORDER=
